<svg xmlns="http://www.w3.org/2000/svg" width="30.864" height="38.448" viewBox="0 0 30.864 38.448"><defs><style>.a{fill:#006d12;stroke:#006d12;stroke-width:2px;}.b{fill:#fff;}</style></defs><g transform="translate(1 1)"><path class="a" d="M393.695,130.276q0-3.04,0-6.08a1.1,1.1,0,0,0-1.1-1.147c-.182-.008-.364,0-.546,0a21.315,21.315,0,0,1-6.08-.963,13.094,13.094,0,0,1-5.88-3.508,1.1,1.1,0,0,0-1.689.057,11.4,11.4,0,0,1-3.459,2.514,20.225,20.225,0,0,1-8.728,1.9c-.959.011-1.38.422-1.381,1.368q0,5.09,0,10.18a21.5,21.5,0,0,0,.4,4.241,21.877,21.877,0,0,0,6.22,11.314,17.624,17.624,0,0,0,6.763,4.312,2.878,2.878,0,0,0,2.066,0c.676-.267,1.361-.522,2.009-.847a21.731,21.731,0,0,0,11.344-17.7c.082-1.875.014-3.756.014-5.634Z" transform="translate(-364.831 -118.206)"/><path class="b" d="M388.677,130.174l-12.446,15.412-7.407-9.5a1.478,1.478,0,1,1,2.331-1.818l5.116,6.56,10.105-12.514a1.478,1.478,0,1,1,2.3,1.857Z" transform="translate(-364.326 -118.031)"/></g></svg>